<?xml version="1.0" encoding="UTF-8"?>
<!DOCTYPE svg PUBLIC "-//W3C//DTD SVG 1.1//EN" "http://www.w3.org/Graphics/SVG/1.1/DTD/svg11.dtd">
<!-- Creator: CorelDRAW 2017 -->
<svg xmlns="http://www.w3.org/2000/svg" xml:space="preserve" width="897px" height="817px" version="1.1" style="shape-rendering:geometricPrecision; text-rendering:geometricPrecision; image-rendering:optimizeQuality; fill-rule:evenodd; clip-rule:evenodd"
viewBox="0 0 98312.36 89580.92"
 xmlns:xlink="http://www.w3.org/1999/xlink">
 <defs>
  <style type="text/css">
   <![CDATA[
    .fil1 {fill:#FEFEFE}
    .fil3 {fill:#FEFEFE}
    .fil0 {fill:#FECC00}
    .fil2 {fill:#EF7F1A}
    .fil6 {fill:#BA283B}
    .fil5 {fill:white}
    .fil94 {fill:#FEFEFE;fill-rule:nonzero}
    .fil4 {fill:#2B4B94;fill-rule:nonzero}
    .fil24 {fill:#1FAADF;fill-rule:nonzero}
    .fil42 {fill:#3B4846;fill-rule:nonzero}
    .fil26 {fill:#4180AC;fill-rule:nonzero}
    .fil39 {fill:#485654;fill-rule:nonzero}
    .fil22 {fill:#4BAEAF;fill-rule:nonzero}
    .fil17 {fill:#4F9CCF;fill-rule:nonzero}
    .fil64 {fill:#543D36;fill-rule:nonzero}
    .fil41 {fill:#5B6E6B;fill-rule:nonzero}
    .fil14 {fill:#5BD1D1;fill-rule:nonzero}
    .fil40 {fill:#6E8582;fill-rule:nonzero}
    .fil65 {fill:#72594B;fill-rule:nonzero}
    .fil56 {fill:#747577;fill-rule:nonzero}
    .fil7 {fill:#747577;fill-rule:nonzero}
    .fil33 {fill:#758082;fill-rule:nonzero}
    .fil53 {fill:#8A9091;fill-rule:nonzero}
    .fil8 {fill:#8A9091;fill-rule:nonzero}
    .fil19 {fill:#8E959A;fill-rule:nonzero}
    .fil32 {fill:#909093;fill-rule:nonzero}
    .fil27 {fill:#97C4E4;fill-rule:nonzero}
    .fil23 {fill:#9EE4E4;fill-rule:nonzero}
    .fil69 {fill:#A08070;fill-rule:nonzero}
    .fil10 {fill:#A0A7AC;fill-rule:nonzero}
    .fil9 {fill:#ACAFAF;fill-rule:nonzero}
    .fil34 {fill:#ACB5B5;fill-rule:nonzero}
    .fil63 {fill:#AFB5BA;fill-rule:nonzero}
    .fil68 {fill:#B19380;fill-rule:nonzero}
    .fil20 {fill:#B5B5B6;fill-rule:nonzero}
    .fil38 {fill:#C49E77;fill-rule:nonzero}
    .fil21 {fill:#C66746;fill-rule:nonzero}
    .fil29 {fill:#C69E59;fill-rule:nonzero}
    .fil11 {fill:#CACACC;fill-rule:nonzero}
    .fil15 {fill:#CF3A52;fill-rule:nonzero}
    .fil67 {fill:#D1CFCA;fill-rule:nonzero}
    .fil28 {fill:#D1D3D4;fill-rule:nonzero}
    .fil52 {fill:#D3D1D3;fill-rule:nonzero}
    .fil16 {fill:#E2506E;fill-rule:nonzero}
    .fil35 {fill:#E4E4E4;fill-rule:nonzero}
    .fil51 {fill:#E6E6E8;fill-rule:nonzero}
    .fil62 {fill:#E6E8E9;fill-rule:nonzero}
    .fil36 {fill:#EB4416;fill-rule:nonzero}
    .fil91 {fill:#EDEDED;fill-rule:nonzero}
    .fil77 {fill:#EFCFB3;fill-rule:nonzero}
    .fil13 {fill:#F27C54;fill-rule:nonzero}
    .fil18 {fill:#F2BF6B;fill-rule:nonzero}
    .fil85 {fill:#F2F4F4;fill-rule:nonzero}
    .fil25 {fill:#F66789;fill-rule:nonzero}
    .fil30 {fill:#F7B19A;fill-rule:nonzero}
    .fil31 {fill:#F7DAA8;fill-rule:nonzero}
    .fil37 {fill:white;fill-rule:nonzero}
    .fil70 {fill:white;fill-rule:nonzero}
    .fil87 {fill:#778FBE;fill-rule:nonzero}
    .fil58 {fill:#426BA7;fill-rule:nonzero}
    .fil93 {fill:#606DA5;fill-rule:nonzero}
    .fil60 {fill:#1B4188;fill-rule:nonzero}
    .fil83 {fill:#F75C75;fill-rule:nonzero}
    .fil92 {fill:#E47B88;fill-rule:nonzero}
    .fil86 {fill:#DB5162;fill-rule:nonzero}
    .fil84 {fill:#CF142B;fill-rule:nonzero}
    .fil44 {fill:#874DBF;fill-rule:nonzero}
    .fil75 {fill:#61D2E7;fill-rule:nonzero}
    .fil72 {fill:#29C2DE;fill-rule:nonzero}
    .fil76 {fill:white;fill-rule:nonzero}
    .fil71 {fill:#0099BA;fill-rule:nonzero}
    .fil89 {fill:#92E3DE;fill-rule:nonzero}
    .fil88 {fill:#57D4CC;fill-rule:nonzero}
    .fil90 {fill:#59C3BF;fill-rule:nonzero}
    .fil47 {fill:#00A39C;fill-rule:nonzero}
    .fil82 {fill:#BBE38C;fill-rule:nonzero}
    .fil81 {fill:#A3D963;fill-rule:nonzero}
    .fil79 {fill:#61BF1A;fill-rule:nonzero}
    .fil78 {fill:#21211A;fill-rule:nonzero}
    .fil43 {fill:#242424;fill-rule:nonzero}
    .fil73 {fill:#666366;fill-rule:nonzero}
    .fil74 {fill:#3B331C;fill-rule:nonzero}
    .fil50 {fill:#5C788F;fill-rule:nonzero}
    .fil48 {fill:#8599A8;fill-rule:nonzero}
    .fil49 {fill:#ABB8C2;fill-rule:nonzero}
    .fil66 {fill:white;fill-rule:nonzero}
    .fil12 {fill:#E9F5F7;fill-rule:nonzero}
    .fil55 {fill:#DBEFF1;fill-rule:nonzero}
    .fil54 {fill:#B5DEE3;fill-rule:nonzero}
    .fil57 {fill:#CC8F94;fill-rule:nonzero}
    .fil61 {fill:#969CC4;fill-rule:nonzero;fill-opacity:0.250980}
    .fil59 {fill:#426BA7;fill-rule:nonzero;fill-opacity:0.501961}
    .fil80 {fill:#BBE38C;fill-rule:nonzero;fill-opacity:0.501961}
    .fil46 {fill:#E8DDF3;fill-rule:nonzero;fill-opacity:0.800000}
    .fil45 {fill:#C4A8E0;fill-rule:nonzero}
   ]]>
  </style>
 </defs>
 <g id="Layer_x0020_1">
  <metadata id="CorelCorpID_0Corel-Layer"/>
  <polygon class="fil0" points="39351.64,1476.23 38362.09,5350.29 34010.54,6386.95 "/>
  <polygon class="fil1" points="40963.26,8510.11 38362.09,5350.29 34010.54,6386.95 "/>
  <polygon class="fil2" points="40963.26,8510.11 38362.09,5350.29 39351.64,1476.23 "/>
  <polygon class="fil2" points="76562.51,3509.3 70588.33,5092.32 65910.99,0 "/>
  <polygon class="fil3" points="68283.32,10983.4 70588.33,5092.32 65910.99,0 "/>
  <polygon class="fil0" points="68283.32,10983.4 70588.33,5092.32 76562.51,3509.3 "/>
  <polygon class="fil0" points="91147.88,20741.41 93481.9,19016.92 96404.46,20430.63 "/>
  <polygon class="fil3" points="93468.95,16046.72 93481.9,19016.92 96404.46,20430.63 "/>
  <polygon class="fil2" points="93468.95,16046.72 93481.9,19016.92 91147.88,20741.41 "/>
  <polygon class="fil2" points="12027.7,29971.32 5178.27,31226.86 2856.42,38663.29 "/>
  <polygon class="fil1" points="0,26329.47 5178.27,31226.86 2856.42,38663.29 "/>
  <polygon class="fil0" points="0,26329.47 5178.27,31226.86 12027.7,29971.32 "/>
  <g id="_2437269804320">
   <path class="fil4" d="M29199.49 14901.2c2926.57,0 5298.9,2372.46 5298.9,5299.29 0,2926.58 -2372.33,5299.03 -5298.9,5299.03 -2926.71,0 -5299.42,-2372.45 -5299.42,-5299.03 0,-2926.83 2372.71,-5299.29 5299.42,-5299.29z"/>
   <g>
    <path class="fil5" d="M30952.07 18500.07c-540.92,-528.1 -1417.08,-528.1 -1958,0 -541.05,528.37 -541.05,1384.21 0,1912.44 540.92,528.23 1417.08,528.23 1958,0 540.91,-528.23 540.91,-1384.07 0,-1912.44zm-979.07 1991.14l0 0c-571.46,0 -1034.85,-463.39 -1034.85,-1034.85 0,-571.47 463.39,-1034.85 1034.85,-1034.85 571.47,0 1034.98,463.38 1034.98,1034.85 0,571.46 -463.51,1034.85 -1034.98,1034.85z"/>
    <path class="fil5" d="M28719.14 20904.37c21.1,20.58 54.76,20.58 75.85,0l223.67 -220.43c11.13,-11 16.96,-26.15 16.05,-41.81 -0.9,-15.66 -8.67,-30.03 -21.1,-39.61 -39.99,-30.41 -78.31,-63.55 -114.94,-99.27 -47.11,-46.08 -89.7,-94.75 -127.75,-145.75 -9.32,-12.43 -23.56,-20.32 -39.09,-21.62 -15.66,-1.16 -30.94,4.4 -42.07,15.41l-227.03 223.66c-10.36,10.23 -16.18,24.08 -16.18,38.58 0.13,14.36 5.82,28.21 16.18,38.44l256.41 252.4z"/>
    <path class="fil5" d="M27123.31 21827.65c-110.15,107.17 -110.15,281.65 0,388.83 109.64,107.04 288,107.04 398.02,0l1170.37 -1152.38c10.23,-10.23 16.18,-24.08 16.18,-38.58 0,-14.36 -5.95,-28.34 -16.18,-38.44l-319.71 -314.66c-21.09,-20.84 -54.75,-20.84 -75.72,0l-1172.96 1155.23z"/>
    <path class="fil5" d="M30054.03 20304.69c-98.89,0 -201.27,-19.16 -300.29,-59.15l0.25 0c-47.76,-19.03 -70.67,-73.27 -51.38,-121.03 19.03,-47.5 73.13,-70.54 120.76,-51.26 76.89,31.07 155.72,45.7 230.66,45.7 203.35,-0.65 376.66,-104.33 443.71,-270.66 19.42,-47.63 73.65,-70.67 121.15,-51.51 47.64,19.02 70.68,73.39 51.13,121.02 -100.31,246.84 -349.35,386.89 -614.31,386.89l-1.68 0z"/>
   </g>
  </g>
  <path class="fil4" d="M71309.69 20005.04c1678.15,-2906.38 5394.68,-3902.27 8301.45,-2223.99 2906.52,1678.03 3902.41,5394.56 2224.25,8301.07 -1678.15,2906.77 -5394.81,3902.92 -8301.45,2224.77 -2906.77,-1678.16 -3902.41,-5395.08 -2224.25,-8301.85z"/>
  <path class="fil6" d="M26448.94 37895.98c0,2222.7 -1801.89,4024.6 -4024.85,4024.6 -2222.69,0 -4024.72,-1801.9 -4024.72,-4024.6 0,-2222.82 1802.03,-4024.98 4024.72,-4024.98 2222.96,0 4024.85,1802.16 4024.85,4024.98z"/>
  <path class="fil5" d="M24542.2 39431.24l0 -3070.9 -1413.58 0 -1620.94 0 -1201.44 0 0 3070.9 0 0c1412.03,0 2823.93,0 4235.96,0zm-3879.49 -360.22l844.97 -1175.04 845.09 1175.04c-563.31,0 -1126.75,0 -1690.06,0zm1442.06 -554.38l824.52 -1146.17 1223.05 1700.55 -1649.16 0 -398.41 -554.38zm-523.7 -1423.3c0,78.96 -27.31,151.58 -73.39,208.79 -61.23,76.49 -155.33,125.42 -260.95,125.42 -184.06,0 -333.69,-149.89 -333.69,-334.21 0,-184.57 149.63,-333.94 333.69,-333.94 184.71,0 334.34,149.88 334.34,333.94z"/>
  <g id="_2437269809024">
   <path class="fil6" d="M52264.16 15156.84c-985.79,-1707.54 -400.73,-3891.01 1306.93,-4876.94 1707.67,-985.79 3891.01,-400.73 4876.94,1306.8 985.92,1707.67 400.99,3891.27 -1306.67,4877.2 -1707.67,985.79 -3891.27,400.61 -4877.2,-1307.06z"/>
   <path class="fil3" d="M55106.35 13279.35c-534.71,156.1 -935.58,802.39 -935.58,1576.29 0,29.64 0.65,59.28 1.95,88.66l2367.02 0c1.29,-29.38 1.81,-59.02 1.81,-88.66 0,-773.9 -400.87,-1420.31 -935.58,-1576.29 306.9,-101.86 527.85,-385.98 527.85,-720.31 0,-419.12 -348.32,-759.67 -777.79,-759.67 -429.34,0 -777.53,340.55 -777.53,759.67 0,334.46 220.95,618.58 527.85,720.31z"/>
  </g>
  <g id="_2437269808544">
   <path class="fil3" d="M34916.73 32334.84c-760.7,221.99 -1331,1141.51 -1331,2242.63 0,42.2 0.9,84.4 2.71,126.2l3367.57 0c1.81,-41.8 2.72,-84 2.72,-126.2 0,-1101.12 -570.3,-2020.77 -1331.13,-2242.76 436.59,-144.84 750.99,-549.07 750.99,-1024.75 0,-596.19 -495.61,-1080.8 -1106.56,-1080.8 -610.94,0 -1106.17,484.61 -1106.17,1080.8 0,475.81 314.28,880.04 750.87,1024.88z"/>
   <g>
    <path class="fil3" d="M32456.64 32355.55c-640.32,186.91 -1120.28,960.82 -1120.28,1887.72 0,35.33 0.78,70.93 2.21,106.01l2030.22 0c31.71,-468.57 162.7,-936.22 404.62,-1338.52 12.04,-20.06 24.33,-39.86 36.89,-59.67 -195.97,-295.89 -458.47,-508.81 -755.53,-595.54 367.61,-121.8 632.18,-462.09 632.18,-862.44 0,-501.82 -417.18,-909.55 -931.31,-909.55 -514.12,0 -931.04,407.73 -931.04,909.55 0,400.48 264.57,740.64 632.04,862.44z"/>
    <path class="fil3" d="M37489.42 32355.55c-296.8,86.73 -559.17,299.65 -755.39,595.54 12.68,19.68 24.98,39.48 37.02,59.55 241.91,402.42 372.78,870.07 404.49,1338.64l2030.35 0c1.55,-35.08 2.2,-70.68 2.2,-106.01 0,-926.9 -480.08,-1700.94 -1120.41,-1887.72 367.6,-121.8 632.17,-462.09 632.17,-862.44 0,-501.82 -417.17,-909.55 -931.3,-909.55 -514.12,0 -931.04,407.73 -931.04,909.55 0,400.48 264.44,740.64 631.91,862.44z"/>
   </g>
  </g>
  <polygon class="fil7" points="75790.29,74171.03 68449,78409.45 68449,79177.01 75790.29,74942.21 "/>
  <polygon class="fil8" points="68090.07,78203.26 68091.49,78965.77 68449,79177.01 68449,78409.45 "/>
  <polygon class="fil9" points="75431.23,73963.93 68090.07,78203.26 68449,78409.45 75790.29,74171.03 "/>
  <polygon class="fil7" points="74455.01,73393.24 67113.72,77631.53 67113.72,78399.09 74455.01,74164.43 "/>
  <polygon class="fil8" points="66754.79,77425.47 66756.22,78187.98 67113.72,78399.09 67113.72,77631.53 66754.79,77425.47 "/>
  <polygon class="fil9" points="74095.82,73186.14 66754.79,77425.47 66754.79,77425.47 67113.72,77631.53 74455.01,73393.24 "/>
  <polygon class="fil7" points="73132.16,72633.44 65790.87,76871.86 65790.87,77639.43 73132.16,73404.76 "/>
  <polygon class="fil8" points="65431.81,76665.67 65433.37,77428.19 65790.87,77639.43 65790.87,76871.86 "/>
  <polygon class="fil9" points="72772.98,72426.34 65431.81,76665.67 65790.87,76871.86 73132.16,72633.44 "/>
  <path class="fil10" d="M86035.37 74426.41l-40499.09 -23385.56c-929.1,-536.38 -1501.48,-1527.87 -1501.48,-2600.78l0 -25724.35c0,-1155.36 1250.11,-1877.88 2251.18,-1301.24l40497.67 23331.06c930.65,536.13 1504.19,1528.4 1504.19,2602.34l0 25778.07c0,1156 -1251.4,1878.39 -2252.47,1300.46z"/>
  <path class="fil10" d="M60364.48 60658.04l12.55 3887.39c2.98,922.63 -488.11,1776.39 -1287.25,2237.71l-3380.64 1951.26 9344.59 5394.69 3390.22 -1948.94c799.4,-459.11 1292.17,-1310.55 1292.17,-2232.27l0 -3903.7 -9371.64 -5386.14z"/>
  <polygon class="fil10" points="86606.06,74906.36 87488.18,74453.33 86728.25,73392.98 "/>
  <polygon class="fil10" points="44766,21426.91 43866.67,21889.13 44315.55,21885.12 "/>
  <path class="fil11" d="M85087.25 74916.59l-40498.97 -23385.56c-929.1,-536.52 -1501.47,-1527.88 -1501.47,-2600.78l0 -25724.36c0,-1155.35 1249.97,-1877.87 2251.17,-1301.23l40497.67 23331.06c930.53,536.13 1504.06,1528.4 1504.06,2602.34l0 25778.07c0,1156 -1251.4,1878.39 -2252.46,1300.46z"/>
  <polygon class="fil12" points="45089.07,24119.2 45089.07,48729.75 85172.29,71872.87 85172.29,47169.52 "/>
  <polygon class="fil13" points="47100.01,27545.02 47098.45,30627.31 82464.07,51044.22 82466.4,47967.75 "/>
  <polygon class="fil14" points="47110.1,32179.26 47107.39,41434.8 54436.9,45656.65 54445.05,36417.42 "/>
  <polygon class="fil15" points="55767.51,37949.18 55755.86,47177.02 63108.55,51435.25 63111,42186.83 "/>
  <path class="fil16" d="M57373.7 46505.5l-0.13 0.13 659.61 380.94 0 -0.52 -659.48 -380.55zm-1606.19 -8556.32l0 0 -11.65 9227.84 1615.38 935.45 2.33 -1606.84 -30.94 -17.73 -175.38 81.29 -37.28 -77.8 107.04 -64.33 664.79 -387.01 133.06 76.75 472.45 273.11 89.18 51.52 110.54 63.94 880.95 509.08 442.42 255.51 0 0.26 0.39 0.13 548.16 574.18c41.55,43.62 98.12,66.4 155.2,66.4 36.63,0 73.52,-9.32 106.91,-28.6l516.2 -297.06 674.89 381.06 -1205.2 698.57c-33.52,19.42 -70.67,28.87 -107.56,28.87 -48.28,0 -96.3,-16.18 -135.39,-48.02l-553.21 -449.8 553.21 449.8c39.09,31.84 87.11,48.02 135.39,48.02 37.02,0 74.04,-9.45 107.56,-28.87l1205.2 -698.57 0 445.52 -1205.97 697.93c-33.4,19.41 -70.42,28.86 -107.43,28.86 -47.9,0 -95.53,-16.05 -134.49,-47.5l-553.47 -445.39 0 1007.02 3077.76 1782.48 2.45 -9248.42 -7343.49 -4237.65z"/>
  <polygon class="fil17" points="65776.12,42952.06 65773.4,52207.73 73121.16,56439.94 73147.44,47203.43 "/>
  <polygon class="fil18" points="75125.5,48350.76 75124.59,64536.24 82467.05,68775.44 82496.69,52602 "/>
  <polygon class="fil19" points="69068.48,65666.74 69068.48,66434.05 69729.26,66048.32 "/>
  <polygon class="fil20" points="69068.48,65659.24 69068.48,65666.74 69729.26,66048.32 69736.12,66044.18 "/>
  <path class="fil10" d="M64882.74 61872.42c0,382.49 -310.13,513.99 -692.75,293.56 -382.48,-220.43 -692.74,-709.18 -692.74,-1091.8 0,-382.49 310.26,-514 692.74,-293.56 382.62,220.43 692.75,709.18 692.75,1091.8z"/>
  <polygon class="fil13" points="47093.02,27543.6 47436.93,27344.39 82801.51,47775.02 82794.78,50860.94 82467.57,51051.21 82465.88,47966.85 "/>
  <polygon class="fil21" points="82801.51,47775.02 82465.88,47966.85 82467.57,51051.21 82794.78,50852 "/>
  <polygon class="fil10" points="45515.18,24364.23 45515.18,48975.81 45089.07,48729.75 45089.07,24119.2 "/>
  <polygon class="fil10" points="45515.57,48489.13 85172.29,71381.78 85172.29,71872.22 45089.07,48733.63 "/>
  <polygon class="fil14" points="47091.85,32166.96 47439.91,31970.22 54780.42,36211.36 54784.83,45453.44 54436.9,45656.65 54445.05,36417.42 "/>
  <polygon class="fil22" points="54780.42,36211.36 54445.05,36417.42 54436.9,45654.97 54784.83,45453.44 "/>
  <polygon class="fil23" points="47439.91,31970.22 47091.85,32166.96 54445.05,36417.42 54780.42,36211.36 "/>
  <polygon class="fil24" points="55767.51,37949.18 56780.49,37364.52 64117.9,41605.79 64111.42,50859.25 63108.55,51435.25 63111,42186.83 "/>
  <polygon class="fil15" points="55767.51,37949.18 56780.49,37364.52 64117.9,41605.79 63111,42186.83 "/>
  <polygon class="fil25" points="56780.49,37364.52 55767.51,37949.18 63111,42186.83 64117.9,41605.79 "/>
  <polygon class="fil15" points="64117.9,41605.66 64111.42,50859.25 63108.55,51435.25 63111,42186.83 "/>
  <polygon class="fil17" points="65776.12,42951.93 66124.17,42755.06 73464.69,46996.2 73469.09,56238.28 73121.16,56439.94 73147.31,47203.3 "/>
  <polygon class="fil26" points="73464.69,46996.2 73147.31,47203.3 73121.16,56439.94 73469.09,56238.28 "/>
  <polygon class="fil27" points="66124.17,42755.06 65776.12,42951.93 73147.31,47203.3 73464.69,46996.2 "/>
  <polygon class="fil18" points="75124.59,48350.37 75472.65,48153.5 82813.16,52394.64 82815.88,68574.42 82467.82,68776.08 82460.45,52581.16 "/>
  <polygon class="fil12" points="82813.16,52394.64 82815.88,68574.42 82815.88,68574.03 "/>
  <polygon class="fil28" points="82813.16,52394.64 82815.88,68574.42 82815.88,68574.03 "/>
  <polygon class="fil29" points="82813.16,52394.64 82460.45,52581.16 82467.82,68775.7 82815.88,68574.03 "/>
  <polygon class="fil30" points="47436.8,27344.52 47093.02,27543.6 82465.88,47966.85 82801.51,47775.02 "/>
  <polygon class="fil31" points="75472.65,48153.5 75124.59,48350.37 82460.45,52581.16 82813.16,52394.64 "/>
  <polygon class="fil12" points="47091.46,42957.63 47091.21,43728.43 54433.14,47966.85 54433.14,47196.31 "/>
  <polygon class="fil32" points="47091.46,42957.63 47091.21,43728.43 54433.14,47966.85 54433.14,47196.31 "/>
  <polygon class="fil12" points="54789.61,46988.82 54433.14,47196.31 54433.14,47966.85 54782.5,47762.6 "/>
  <polygon class="fil33" points="54789.61,46988.82 54433.14,47196.31 54433.14,47966.85 54782.5,47762.6 "/>
  <polygon class="fil12" points="47447.81,42750.14 47091.46,42957.63 54433.14,47196.31 54789.61,46988.82 "/>
  <polygon class="fil34" points="47447.81,42750.14 47091.46,42957.63 54433.14,47196.31 54789.61,46988.82 "/>
  <polygon class="fil12" points="47091.46,44499.35 47091.21,45270.28 54433.14,49508.7 54433.14,48738.16 "/>
  <polygon class="fil32" points="47091.46,44499.35 47091.21,45270.28 54433.14,49508.7 54433.14,48738.16 "/>
  <polygon class="fil12" points="54789.61,48530.68 54433.14,48738.16 54433.14,49508.7 54782.5,49304.45 "/>
  <polygon class="fil33" points="54789.61,48530.68 54433.14,48738.16 54433.14,49508.7 54782.5,49304.45 "/>
  <polygon class="fil12" points="47447.81,44292 47091.46,44499.35 54433.14,48738.16 54789.61,48530.68 "/>
  <polygon class="fil34" points="47447.81,44292 47091.46,44499.35 54433.14,48738.16 54789.61,48530.68 "/>
  <polygon class="fil12" points="47091.46,46039.92 47091.21,46810.72 54433.14,51049.14 54433.14,50278.6 "/>
  <polygon class="fil32" points="47091.46,46039.92 47091.21,46810.72 54433.14,51049.14 54433.14,50278.6 "/>
  <polygon class="fil12" points="54789.61,50071.11 54433.14,50278.6 54433.14,51049.14 54782.5,50844.89 "/>
  <polygon class="fil33" points="54789.61,50071.11 54433.14,50278.6 54433.14,51049.14 54782.5,50844.89 "/>
  <polygon class="fil12" points="47447.81,45832.43 47091.46,46039.92 54433.14,50278.6 54789.61,50071.11 "/>
  <polygon class="fil34" points="47447.81,45832.43 47091.46,46039.92 54433.14,50278.6 54789.61,50071.11 "/>
  <polygon class="fil12" points="47091.46,47581.25 47091.21,48352.18 54433.14,52590.61 54433.14,51819.94 "/>
  <polygon class="fil32" points="47091.46,47581.25 47091.21,48352.18 54433.14,52590.61 54433.14,51819.94 "/>
  <polygon class="fil12" points="54789.61,51612.58 54433.14,51819.94 54433.14,52590.61 54782.5,52386.35 "/>
  <polygon class="fil33" points="54789.61,51612.58 54433.14,51819.94 54433.14,52590.61 54782.5,52386.35 "/>
  <polygon class="fil12" points="47447.81,47373.77 47091.46,47581.25 54433.14,51819.94 54789.61,51612.58 "/>
  <polygon class="fil34" points="47447.81,47373.77 47091.46,47581.25 54433.14,51819.94 54789.61,51612.58 "/>
  <path class="fil12" d="M60030.79 50428.74l0 770.8 1715.3 990.2 259.13 -152.61 670.36 389.61 -58.9 265.6 1159.63 669.32 0 -770.54 -3745.52 -2162.38zm-3596.29 -2076.3l0 0 -0.26 770.8 934.8 539.62 1.03 -770.28 -935.57 -540.14z"/>
  <path class="fil32" d="M60030.79 50428.74l0 770.8 1715.3 990.2 259.13 -152.61 670.36 389.61 -58.9 265.6 1159.63 669.32 0 -770.54 -3745.52 -2162.38zm-3596.29 -2076.3l0 0 -0.26 770.8 934.8 539.62 1.03 -770.28 -935.57 -540.14z"/>
  <polygon class="fil12" points="64132.65,52383.64 63776.31,52591.12 63776.31,53361.66 64125.53,53157.41 "/>
  <polygon class="fil33" points="64132.65,52383.64 63776.31,52591.12 63776.31,53361.66 64125.53,53157.41 "/>
  <path class="fil12" d="M60030.79 50015.45l0 413.29 3745.52 2162.38 356.34 -207.48 -4101.86 -2368.19zm-3239.82 -1870.5l0 0 -356.47 207.49 935.57 540.14 0.65 -412.9 -579.75 -334.73z"/>
  <path class="fil34" d="M60030.79 50015.45l0 413.29 3745.52 2162.38 356.34 -207.48 -4101.86 -2368.19zm-3239.82 -1870.5l0 0 -356.47 207.49 935.57 540.14 0.65 -412.9 -579.75 -334.73z"/>
  <path class="fil12" d="M62464.85 53375.77l-151.83 683.04 1463.29 844.71 0 -770.54 -1311.46 -757.21zm-3095.23 -1786.88l0 0 0 693.53 -1045.98 -602.92 -15.02 67.56 3494.16 2017.15 151.96 -682.91 -2585.12 -1492.41zm-2935.12 -1694.59l0 0 -0.26 770.8 693.4 400.35 151.96 -683.3 -845.1 -487.85z"/>
  <path class="fil32" d="M62464.85 53375.77l-151.83 683.04 1463.29 844.71 0 -770.54 -1311.46 -757.21zm-3095.23 -1786.88l0 0 0 693.53 -1045.98 -602.92 -15.02 67.56 3494.16 2017.15 151.96 -682.91 -2585.12 -1492.41zm-2935.12 -1694.59l0 0 -0.26 770.8 693.4 400.35 151.96 -683.3 -845.1 -487.85z"/>
  <polygon class="fil12" points="64132.65,53925.49 63776.31,54132.98 63776.31,54903.52 64125.53,54699.27 "/>
  <polygon class="fil33" points="64132.65,53925.49 63776.31,54132.98 63776.31,54903.52 64125.53,54699.27 "/>
  <path class="fil12" d="M62546.14 53009.59l-81.29 366.18 1311.46 757.21 356.34 -207.49 -1586.51 -915.9zm-3176.52 -1496.29l0 0 0 75.59 2585.12 1492.41 59.02 -264.96 -670.35 -389.6 95.65 -56.31 -1408.27 -813.12 0 336.92 -0.39 -0.13 0 0 -660.78 -380.8zm-2578.65 -1826.49l0 0 -356.47 207.49 845.1 487.85 60.19 -271.17 28.6 -16.83 0.13 -73.91 -577.55 -333.43z"/>
  <path class="fil34" d="M62546.14 53009.59l-81.29 366.18 1311.46 757.21 356.34 -207.49 -1586.51 -915.9zm-3176.52 -1496.29l0 0 0 75.59 2585.12 1492.41 59.02 -264.96 -670.35 -389.6 95.65 -56.31 -1408.27 -813.12 0 336.92 -0.39 -0.13 0 0 -660.78 -380.8zm-2578.65 -1826.49l0 0 -356.47 207.49 845.1 487.85 60.19 -271.17 28.6 -16.83 0.13 -73.91 -577.55 -333.43z"/>
  <path class="fil12" d="M61512.58 55068.03l-59.93 34.56 46.34 26.8 13.59 -61.36zm648.87 -326.95l0 0 -151.7 683.17 1766.56 1019.7 0 -770.54 -1614.86 -932.33zm-5726.95 -3306.35l0 0 -0.26 770.8 389.87 225.09 151.96 -683.3 -541.57 -312.59z"/>
  <path class="fil32" d="M61512.58 55068.03l-59.93 34.56 46.34 26.8 13.59 -61.36zm648.87 -326.95l0 0 -151.7 683.17 1766.56 1019.7 0 -770.54 -1614.86 -932.33zm-5726.95 -3306.35l0 0 -0.26 770.8 389.87 225.09 151.96 -683.3 -541.57 -312.59z"/>
  <polygon class="fil12" points="64132.65,55465.92 63776.31,55673.41 63776.31,56443.95 64125.53,56239.7 "/>
  <polygon class="fil33" points="64132.65,55465.92 63776.31,55673.41 63776.31,56443.95 64125.53,56239.7 "/>
  <path class="fil12" d="M62242.87 54374.9l-81.42 366.18 1614.86 932.33 356.34 -207.49 -1889.78 -1091.02zm-4004.4 -2311.88l0 0 -21.23 95.52 1.55 0.91 0.52 -0.26 3493.38 2010.16 19.81 -89.05 -3494.03 -2017.28zm-1447.5 -835.78l0 0 -356.47 207.49 541.57 312.59 81.41 -366.18 -266.51 -153.9z"/>
  <path class="fil34" d="M62242.87 54374.9l-81.42 366.18 1614.86 932.33 356.34 -207.49 -1889.78 -1091.02zm-4004.4 -2311.88l0 0 -21.23 95.52 1.55 0.91 0.52 -0.26 3493.38 2010.16 19.81 -89.05 -3494.03 -2017.28zm-1447.5 -835.78l0 0 -356.47 207.49 541.57 312.59 81.41 -366.18 -266.51 -153.9z"/>
  <path class="fil12" d="M61858.05 56107.29l-151.7 683.16 2069.96 1194.97 0 -770.54 -1918.26 -1107.59zm-4004.4 -2311.88l0 0 -151.83 683.3 3493.13 2016.5 151.95 -682.91 -3493.25 -2016.89zm-1419.15 -819.34l0 0 -0.26 770.93 86.34 49.7 151.83 -683.3 -237.91 -137.33z"/>
  <path class="fil32" d="M61858.05 56107.29l-151.7 683.16 2069.96 1194.97 0 -770.54 -1918.26 -1107.59zm-4004.4 -2311.88l0 0 -151.83 683.3 3493.13 2016.5 151.95 -682.91 -3493.25 -2016.89zm-1419.15 -819.34l0 0 -0.26 770.93 86.34 49.7 151.83 -683.3 -237.91 -137.33z"/>
  <polygon class="fil12" points="64132.65,57007.39 63776.31,57214.88 63776.31,57985.42 64125.53,57781.17 "/>
  <polygon class="fil33" points="64132.65,57007.39 63776.31,57214.88 63776.31,57985.42 64125.53,57781.17 "/>
  <path class="fil12" d="M61939.34 55741.11l-81.29 366.18 1918.26 1107.59 356.34 -207.49 -2193.31 -1266.28zm-4024.2 -2222.7l0 0 -61.49 277 3493.25 2016.89 81.55 -366.18 -285.15 -164.64 -86.85 50.22 -0.52 -100.7 0.52 100.7 -3141.31 -1813.29zm-1172.32 -721.74l0 0 -308.32 179.4 237.91 137.33 70.41 -316.73z"/>
  <path class="fil34" d="M61939.34 55741.11l-81.29 366.18 1918.26 1107.59 356.34 -207.49 -2193.31 -1266.28zm-4024.2 -2222.7l0 0 -61.49 277 3493.25 2016.89 81.55 -366.18 -285.15 -164.64 -86.85 50.22 -0.52 -100.7 0.52 100.7 -3141.31 -1813.29zm-1172.32 -721.74l0 0 -308.32 179.4 237.91 137.33 70.41 -316.73z"/>
  <polygon class="fil12" points="65780.91,53752.05 65780.52,54522.84 73122.59,58761.27 73122.59,57990.73 "/>
  <polygon class="fil32" points="65780.91,53752.05 65780.52,54522.84 73122.59,58761.27 73122.59,57990.73 "/>
  <polygon class="fil12" points="73478.93,57783.24 73122.59,57990.73 73122.59,58761.27 73471.81,58557.01 "/>
  <polygon class="fil33" points="73478.93,57783.24 73122.59,57990.73 73122.59,58761.27 73471.81,58557.01 "/>
  <polygon class="fil12" points="66137.25,53544.56 65780.91,53752.05 73122.59,57990.73 73478.93,57783.24 "/>
  <polygon class="fil34" points="66137.25,53544.56 65780.91,53752.05 73122.59,57990.73 73478.93,57783.24 "/>
  <polygon class="fil12" points="65780.91,55293.9 65780.52,56064.7 73122.59,60303.12 73122.59,59532.58 "/>
  <polygon class="fil32" points="65780.91,55293.9 65780.52,56064.7 73122.59,60303.12 73122.59,59532.58 "/>
  <polygon class="fil12" points="73478.93,59325.09 73122.59,59532.58 73122.59,60303.12 73471.81,60098.87 "/>
  <polygon class="fil33" points="73478.93,59325.09 73122.59,59532.58 73122.59,60303.12 73471.81,60098.87 "/>
  <polygon class="fil12" points="66137.25,55086.41 65780.91,55293.9 73122.59,59532.58 73478.93,59325.09 "/>
  <polygon class="fil34" points="66137.25,55086.41 65780.91,55293.9 73122.59,59532.58 73478.93,59325.09 "/>
  <polygon class="fil12" points="65780.91,56834.33 65780.52,57605.13 73122.59,61843.55 73122.59,61073.02 "/>
  <polygon class="fil32" points="65780.91,56834.33 65780.52,57605.13 73122.59,61843.55 73122.59,61073.02 "/>
  <polygon class="fil12" points="73478.93,60865.53 73122.59,61073.02 73122.59,61843.55 73471.81,61639.3 "/>
  <polygon class="fil33" points="73478.93,60865.53 73122.59,61073.02 73122.59,61843.55 73471.81,61639.3 "/>
  <polygon class="fil12" points="66137.25,56626.85 65780.91,56834.33 73122.59,61073.02 73478.93,60865.53 "/>
  <polygon class="fil34" points="66137.25,56626.85 65780.91,56834.33 73122.59,61073.02 73478.93,60865.53 "/>
  <polygon class="fil12" points="65780.91,58375.67 65780.52,59146.6 73122.59,63385.02 73122.59,62614.48 "/>
  <polygon class="fil32" points="65780.91,58375.67 65780.52,59146.6 73122.59,63385.02 73122.59,62614.48 "/>
  <polygon class="fil12" points="73478.93,62407 73122.59,62614.48 73122.59,63385.02 73471.81,63180.77 "/>
  <polygon class="fil33" points="73478.93,62407 73122.59,62614.48 73122.59,63385.02 73471.81,63180.77 "/>
  <polygon class="fil12" points="66137.25,58168.18 65780.91,58375.67 73122.59,62614.48 73478.93,62407 "/>
  <polygon class="fil34" points="66137.25,58168.18 65780.91,58375.67 73122.59,62614.48 73478.93,62407 "/>
  <path class="fil11" d="M59696.84 60272.19l13.33 4136.03c2.46,768.99 -406.82,1480.38 -1072.65,1864.81l-2928.38 1690.32 9344.2 5394.94 2938.35 -1687.73c666.09,-382.49 1076.79,-1091.93 1076.79,-1860.14l0 -4151.96 -9371.64 -5386.27z"/>
  <polygon class="fil10" points="55708.88,67963.35 55708.88,68734.4 56376.77,68348.94 "/>
  <polygon class="fil35" points="59698,60690.66 59698.91,61024.35 59699.3,61024.48 59698.26,60690.79 "/>
  <path class="fil20" d="M60792.91 60902.42l-90.86 408.5 -252.15 147.04 8618.06 4976.47 0 -775.45 -8275.05 -4756.56zm-949.94 -546.1l0 0 1.94 419.12 -146.65 -84.65 1.04 333.69 432.06 249.55 148.33 -666.6 -72.22 -41.55 -362.56 209.56 -1.94 -419.12z"/>
  <polygon class="fil36" points="43442.37,70347.84 27159.3,60953.93 27159.3,57868.28 43442.37,67262.32 "/>
  <polygon class="fil13" points="43442.37,70347.84 27159.3,60953.93 27159.3,57868.28 43442.37,67262.32 "/>
  <polygon class="fil37" points="27565.34,59186.99 27405.74,59094.83 27405.74,58010.4 27565.34,58102.56 "/>
  <polygon class="fil37" points="27966.34,59418.29 27806.61,59326.13 27806.61,58241.71 27966.34,58333.86 "/>
  <polygon class="fil37" points="28367.2,59649.59 28207.48,59557.43 28207.48,58473.01 28367.2,58565.04 "/>
  <polygon class="fil37" points="28768.07,59880.9 28608.48,59788.74 28608.48,58704.31 28768.07,58796.47 "/>
  <polygon class="fil37" points="29569.94,60343.51 29410.34,60251.35 29410.34,59166.92 29569.94,59258.95 "/>
  <polygon class="fil37" points="29970.93,60574.68 29811.21,60482.65 29811.21,59398.23 29970.93,59490.26 "/>
  <polygon class="fil37" points="30371.8,60805.99 30212.07,60713.96 30212.07,59629.53 30371.8,59721.56 "/>
  <polygon class="fil37" points="30772.67,61037.29 30613.07,60945.26 30613.07,59860.84 30772.67,59952.87 "/>
  <polygon class="fil37" points="31574.53,61499.9 31414.93,61407.74 31414.93,60323.31 31574.53,60415.47 "/>
  <polygon class="fil37" points="31975.4,61731.2 31815.8,61639.04 31815.8,60554.62 31975.4,60646.78 "/>
  <polygon class="fil37" points="32376.39,61962.51 32216.67,61870.35 32216.67,60785.92 32376.39,60878.08 "/>
  <polygon class="fil37" points="32777.39,62193.81 32617.66,62101.65 32617.66,61017.23 32777.39,61109.39 "/>
  <polygon class="fil37" points="33579.12,62656.42 33419.4,62564.26 33419.4,61479.84 33579.12,61572 "/>
  <polygon class="fil37" points="33979.99,62887.73 33820.39,62795.57 33820.39,61711.14 33979.99,61803.3 "/>
  <polygon class="fil37" points="34380.99,63119.03 34221.26,63026.87 34221.26,61942.45 34380.99,62034.6 "/>
  <polygon class="fil37" points="34781.85,63350.33 34622.26,63258.17 34622.26,62173.75 34781.85,62265.91 "/>
  <polygon class="fil37" points="35583.72,63812.94 35423.99,63720.78 35423.99,62636.36 35583.72,62728.39 "/>
  <polygon class="fil37" points="35984.71,64044.25 35824.99,63952.09 35824.99,62867.66 35984.71,62959.69 "/>
  <polygon class="fil37" points="36385.58,64275.42 36225.86,64183.39 36225.86,63098.97 36385.58,63191 "/>
  <polygon class="fil37" points="36786.45,64506.86 36626.85,64414.7 36626.85,63330.27 36786.45,63422.3 "/>
  <polygon class="fil37" points="37588.31,64969.33 37428.59,64877.3 37428.59,63792.88 37588.31,63884.91 "/>
  <polygon class="fil37" points="37989.18,65200.64 37829.58,65108.48 37829.58,64024.05 37989.18,64116.21 "/>
  <polygon class="fil37" points="38390.18,65431.94 38230.45,65339.78 38230.45,64255.36 38390.18,64347.52 "/>
  <polygon class="fil37" points="38791.04,65663.25 38631.45,65571.09 38631.45,64486.66 38791.04,64578.82 "/>
  <polygon class="fil37" points="39592.91,66125.86 39433.18,66033.7 39433.18,64949.27 39592.91,65041.43 "/>
  <polygon class="fil37" points="39993.9,66357.16 39834.18,66265 39834.18,65180.58 39993.9,65272.74 "/>
  <polygon class="fil37" points="40394.77,66588.46 40235.05,66496.31 40235.05,65411.88 40394.77,65504.04 "/>
  <polygon class="fil37" points="40795.64,66819.77 40636.04,66727.61 40636.04,65643.18 40795.64,65735.34 "/>
  <polygon class="fil37" points="41597.5,67282.38 41437.78,67190.22 41437.78,66105.79 41597.5,66197.82 "/>
  <polygon class="fil37" points="41998.37,67513.68 41838.77,67421.52 41838.77,66337.1 41998.37,66429.13 "/>
  <polygon class="fil37" points="42399.36,67744.86 42239.64,67652.83 42239.64,66568.4 42399.36,66660.56 "/>
  <polygon class="fil37" points="42800.23,67976.29 42640.64,67884.13 42640.64,66799.71 42800.23,66891.74 "/>
  <polygon class="fil37" points="29169.07,60570.54 29009.34,60478.38 29009.34,58935.62 29169.07,59027.78 "/>
  <polygon class="fil37" points="31173.66,61727.06 31013.94,61634.9 31013.94,60092.01 31173.66,60184.17 "/>
  <polygon class="fil37" points="33178.26,62883.45 33018.53,62791.42 33018.53,61248.53 33178.26,61340.69 "/>
  <polygon class="fil37" points="35182.85,64039.98 35023.13,63947.82 35023.13,62405.05 35182.85,62497.21 "/>
  <polygon class="fil37" points="37187.45,65196.5 37027.72,65104.34 37027.72,63561.45 37187.45,63653.61 "/>
  <polygon class="fil37" points="39192.04,66352.89 39032.31,66260.86 39032.31,64717.97 39192.04,64810.13 "/>
  <polygon class="fil37" points="41196.63,67509.41 41036.91,67417.25 41036.91,65874.49 41196.63,65966.65 "/>
  <polygon class="fil37" points="43201.23,68665.93 43041.5,68573.77 43041.5,67031.01 43201.23,67123.04 "/>
  <polygon class="fil13" points="44132.92,66906.62 44132.92,69981.4 43442.37,70347.84 43442.37,67262.32 "/>
  <polygon class="fil21" points="44132.92,66906.62 43442.37,67262.32 43442.37,70347.84 44132.92,69981.4 "/>
  <polygon class="fil13" points="27159.3,57868.28 27847.51,57468.06 44132.92,66906.62 43442.37,67262.32 "/>
  <polygon class="fil30" points="27847.51,57468.06 27159.3,57868.28 43442.37,67262.32 44132.92,66906.62 "/>
  <path class="fil38" d="M85401.52 79834.29c0,192.35 -63.04,332.27 -170.21,412.39l-77.79 43.36 -3.24 2.46c-153.77,63.81 -366.56,35.21 -602.14,-101.48 -210.21,-123.48 -404.1,-312.46 -553.09,-526.03l-0.77 -0.78c-182.51,-262.62 -297.84,-562.14 -297.84,-820.63 0,-197.13 66.27,-339.51 178.37,-418.86l6.6 -4.14 35.98 -20.45 2.46 -1.55c155.46,-80.25 379.64,-56.44 628.29,88.27 213.57,124.39 410.7,316.61 559.56,534.32l4.92 7.38c177.58,258.48 288.9,552.18 288.9,805.74z"/>
  <path class="fil39" d="M85112.62 79028.55l-54.76 21.23 -5.69 2.45 -463.13 268.33 -593.99 344.43 -7306.6 4231.82 -5798.01 3361.74 -0.78 0.78 -84.26 48.28 -1126.62 -676.57 28.73 -16.44 14167.3 -8189.88 6.6 -4.14 35.98 -20.45 2.46 -1.55c155.46,-80.25 379.64,-56.44 628.29,88.27 213.57,124.39 410.7,316.61 559.56,534.32l4.92 7.38z"/>
  <path class="fil40" d="M84120.87 78353.01c-75.08,0.13 -142.9,15.54 -201.02,45.57l-2.46 1.55 -35.98 20.45 -6.6 4.14 -14160.05 8185.74c53.59,-23.81 114.68,-36.11 181.6,-36.11 125.04,0 270.4,42.84 425.46,133.06 219.14,127.5 418.21,327.09 568.75,551.02l5797.88 -3361.62 7305.83 -4232.6 594.76 -343.65 463.13 -268.33 5.69 -2.45 49.84 -28.61c-148.86,-217.71 -345.99,-409.93 -559.56,-534.32 -155.58,-90.6 -301.59,-133.84 -427.27,-133.84z"/>
  <path class="fil39" d="M85401.52 79834.29c0,192.35 -63.04,332.27 -170.21,412.39l-77.79 43.36 -3.24 2.46 -14192.79 8193.25 -13.07 8.15 0 -2.46 -53.07 -1231.33 0 -0.78 5797.1 -3362.52 7305.83 -4232.6 594.76 -343.65 468.82 -270.78 49.84 -28.61 4.92 7.38c177.58,258.48 288.9,552.18 288.9,805.74z"/>
  <path class="fil39" d="M68784.63 88316.7l164.38 -337.18 7.25 -14.5 564.48 -1154.19 20.45 -42.32 0.9 0c129.57,-227.17 429.86,-264.57 779.73,-61.1 219.4,127.63 418.6,327.48 569.14,551.79l0.26 0 0 0.26c170.73,254.47 278.55,540.27 278.55,789.05 0,314.92 -172.28,489.14 -427.28,487.07l0 1.04 -1399.47 -29 -13.33 0 -33.79 -1.16 -400.09 -8.54c-36.24,-1.17 -67.69,-15.67 -89.31,-38.71l-14.63 -19.28 -10.87 -19.29c-13.2,-32.62 -13.2,-68.99 3.63,-103.94z"/>
  <path class="fil41" d="M70765.4 88535.32c-4.78,0.13 -9.83,0.13 -14.75,0.13 -2.72,0 -5.44,0 -8.16,0l0 0.13c1.56,0 3.11,0 4.66,0 6.09,0 12.3,-0.13 18.25,-0.26zm185.23 -46.33l0 0 -6.21 2.97c-34.95,17.48 -73.91,30.03 -115.72,37.15 44.27,-7.38 85.04,-20.71 121.93,-40.12zm119.08 -897.39l0 0c5.83,14.49 11.39,29.12 16.05,43.36l8.54 20.58c26.54,74.94 47.12,148.72 59.16,220.04 4.79,26.54 8.41,53.07 10.87,78.57l0 4.79c3.62,30.16 4.79,60.45 4.79,89.44 0,129.83 -28.99,235.97 -81.03,315.57 52.29,-79.48 81.68,-185.48 81.68,-315.44 0,-144.32 -36.38,-301.07 -100.06,-456.91zm-178.49 -332.14l0 0 0 0.91 9.71 14.49c16.82,25.37 32.61,50.74 47.11,76.11l5.95 8.55c18.26,31.45 36.25,63.94 52.04,95.39 16.95,32.62 32.62,65.37 47.11,97.99l0.78 1.55c-43.88,-100.32 -98.89,-199.72 -162.57,-294.86l-0.13 -0.13zm-994.86 -685.11l0 0c-157.13,0 -282.17,67.7 -354.27,194.16l-0.9 0 -20.45 42.32 -564.48 1154.19 -7.25 14.5 -164.38 337.18c-8.93,18.64 -13.21,37.54 -13.08,56.05 0,16.44 3.24,32.62 9.45,47.89l10.87 19.29 0 0 234.55 -132.93 304.56 -170.47 37.41 -21.75 407.34 -228.33 1029.67 -578.97 84.65 -48.28 1.17 0 0 0 -0.26 0c-150.54,-224.31 -349.74,-424.16 -569.14,-551.79 -155.06,-90.22 -300.42,-133.06 -425.46,-133.06z"/>
  <path class="fil39" d="M68791.87 88439.93l14.63 19.28c20.45,24.21 53.07,38.71 89.31,39.87l102.78 2.46 326.31 7.25 4.79 0 0 -1.17 13.33 0 1399.47 29 0 -1.17c74.95,1.17 143.81,-14.49 201.93,-43.49l13.33 -6.08c131.64,-72.49 211.37,-222.37 211.37,-437.5 0,-28.99 -1.17,-59.28 -4.79,-89.44l0 -4.79c-2.46,-25.5 -6.08,-52.03 -10.87,-78.57 -12.04,-71.32 -32.62,-145.1 -59.16,-220.04l-8.54 -20.58c-8.41,-25.37 -19.28,-51.91 -30.16,-77.28l-2.46 -4.78c-14.49,-32.62 -30.16,-65.37 -47.11,-97.99 -15.79,-31.45 -33.78,-63.94 -52.04,-95.39l-5.95 -8.55c-14.5,-25.37 -30.29,-50.74 -47.11,-76.11l-9.71 -14.49 0 -1.17 -1.17 0 -84.65 48.28 -1029.67 578.97 -407.34 228.33 -37.41 21.75 -304.56 170.47 -234.55 132.93z"/>
  <path class="fil42" d="M70891.22 87259.2l-1.17 0 -84.65 48.28 -1029.67 578.97 -407.34 228.33 -37.41 21.75 -304.56 170.47 -234.55 132.93 14.63 19.28c20.45,24.21 53.07,38.71 89.31,39.87l102.78 2.46 326.31 7.25 4.79 0 0 -1.17 13.33 0 1399.47 29 0 -1.04 0 -0.13c2.72,0 5.44,0 8.16,0 71.84,0 137.85,-15.53 193.77,-43.49l13.33 -6.08c131.64,-72.49 211.37,-222.37 211.37,-437.5 0,-28.99 -1.17,-59.28 -4.79,-89.44l0 -4.79c-2.46,-25.5 -6.08,-52.03 -10.87,-78.57 -12.04,-71.32 -32.62,-145.1 -59.16,-220.04l-8.54 -20.58c-8.41,-25.37 -19.28,-51.91 -30.16,-77.28l-2.46 -4.78c-14.49,-32.62 -30.16,-65.37 -47.11,-97.99 -15.79,-31.45 -33.78,-63.94 -52.04,-95.39l-5.95 -8.55c-14.5,-25.37 -30.29,-50.74 -47.11,-76.11l-9.71 -14.49 0 -1.17z"/>
  <path class="fil43" d="M68781 88420.64l9.71 19.29 1.16 0 14.63 19.41c20.45,24.08 53.07,38.58 89.31,39.87l102.78 2.33 326.31 7.25 4.79 0 0 -1.17 1.29 -371.09 0 -7.25 -381.97 -149.76 -164.38 337.18c-16.83,34.95 -16.83,71.32 -3.63,103.94z"/>
  <path class="fil43" d="M68935.03 88055.37c0,143.93 116.63,328.38 260.43,412.13 143.93,83.62 260.56,34.82 260.56,-108.99 0,-143.93 -116.63,-328.38 -260.56,-412.13 -143.8,-83.61 -260.43,-34.81 -260.43,108.99z"/>
  <polygon class="fil44" points="45084.54,77252.28 45084.54,74940.14 47086.93,76096.15 47086.93,78408.28 "/>
  <polygon class="fil45" points="45084.54,74940.14 45084.54,77252.28 47086.93,78408.28 47086.93,76096.15 "/>
  <polygon class="fil44" points="45084.54,74940.14 47086.93,73784.14 49089.2,74940.14 47086.93,76096.15 "/>
  <polygon class="fil46" points="47086.93,73784.14 45084.54,74940.14 47086.93,76096.15 49089.2,74940.14 "/>
  <polygon class="fil47" points="47086.93,76096.15 49089.2,74940.14 49089.2,77252.28 47086.93,78408.28 "/>
  <polygon class="fil44" points="47086.93,76096.15 49089.2,74940.14 49089.2,77252.28 47086.93,78408.28 "/>
  <polygon class="fil48" points="38425.64,54897.95 38425.64,52585.82 40428.04,53741.95 40428.04,56053.96 "/>
  <polygon class="fil49" points="38425.64,52585.82 40428.04,51429.81 42430.3,52585.82 40428.04,53741.95 "/>
  <polygon class="fil47" points="40428.04,53741.95 42430.3,52585.82 42430.3,54897.95 40428.04,56053.96 "/>
  <polygon class="fil50" points="40428.04,53741.95 42430.3,52585.82 42430.3,54897.95 40428.04,56053.96 "/>
  <polygon class="fil15" points="37084.93,59536.85 37084.93,57224.72 39087.33,58380.85 39087.33,60692.86 "/>
  <polygon class="fil16" points="37084.93,57224.72 37084.93,59536.85 39087.33,60692.86 39087.33,58380.85 "/>
  <polygon class="fil15" points="37084.93,57224.72 39087.33,56068.71 41089.59,57224.72 39087.33,58380.85 "/>
  <polygon class="fil25" points="39087.33,56068.71 37084.93,57224.72 39087.33,58380.85 41089.59,57224.72 "/>
  <polygon class="fil15" points="39087.33,58380.85 41089.59,57224.85 41089.59,59536.85 39087.33,60692.86 "/>
  <polygon class="fil37" points="37082.34,83410.39 42428.62,80331.46 47761.43,83410.39 42422.66,86492.16 "/>
  <polygon class="fil51" points="37082.34,83410.39 37082.34,84181.06 42425.64,87265.93 47761.43,84181.06 47761.43,83410.39 42422.66,86492.16 "/>
  <polygon class="fil52" points="42422.66,86492.16 42425.64,87265.93 47761.43,84181.06 47761.43,83410.39 "/>
  <polygon class="fil53" points="66754.79,77425.47 66756.22,78187.98 66754.79,77425.47 "/>
  <polygon class="fil54" points="74095.82,73186.14 66754.79,77425.47 66756.22,78187.98 67113.72,78399.09 74455.01,74164.43 74455.01,73393.24 "/>
  <polygon class="fil55" points="66754.79,77425.47 66756.22,78187.98 67113.72,78399.09 67113.72,77631.53 66754.79,77425.47 "/>
  <polygon class="fil55" points="74095.82,73186.14 66754.79,77425.47 66754.79,77425.47 67113.72,77631.53 74455.01,73393.24 "/>
  <polygon class="fil54" points="72772.98,72426.34 65431.81,76665.67 65433.37,77428.19 65790.87,77639.43 73132.16,73404.76 73132.16,72633.44 "/>
  <polygon class="fil55" points="65431.81,76665.67 65433.37,77428.19 65790.87,77639.43 65790.87,76871.86 "/>
  <polygon class="fil55" points="72772.98,72426.34 65431.81,76665.67 65790.87,76871.86 73132.16,72633.44 "/>
  <polygon class="fil56" points="75790.29,74171.03 75790.29,74942.21 68449,79177.01 75790.29,74942.34 "/>
  <polygon class="fil54" points="75431.23,73963.93 68089.94,78203.26 68091.49,78965.77 68449,79177.01 75790.29,74942.21 75790.29,74171.03 "/>
  <polygon class="fil55" points="68090.07,78203.26 68091.49,78965.77 68449,79177.01 68449,78409.45 "/>
  <polygon class="fil55" points="75431.23,73963.93 68090.07,78203.26 68449,78409.45 75790.29,74171.03 "/>
  <path class="fil57" d="M85405.01 79834.16c0,189.76 -61.09,327.09 -165.16,407.47l-2.2 2.2 -80.38 46.08 -3.23 2.2 -893.51 515.94c106.27,-80.51 168.4,-218.88 168.4,-409.8 0,-253.05 -111.58,-547 -289.55,-805.49l-4.27 -7.5c-149.12,-217.72 -346.51,-409.67 -559.95,-534.06 -247.74,-144.84 -470.76,-168.53 -626.35,-89.05l1002.88 -574.96c153.39,-65.37 365.66,-36.38 599.56,99.79 214.47,124.39 410.83,316.35 559.94,534.06l5.31 7.51c176.94,258.61 288.51,552.44 288.51,805.61z"/>
  <polygon class="fil49" points="84258.33,80810.77 84260.79,80808.31 84208.11,80838.73 "/>
  <polygon class="fil49" points="82944.41,78964.22 82908.43,78984.67 82901.83,78988.81 82949.07,78961.63 82946.87,78962.53 "/>
  <polygon class="fil49" points="84177.3,80856.59 84208.11,80838.73 84180.54,80854.13 "/>
  <polygon class="fil57" points="83743.95,78502 83867.3,78431.19 83853.45,78442.97 83769.7,78491.25 "/>
  <polygon class="fil57" points="85057.86,80345.7 85191.96,80268.56 85055.79,80347.9 "/>
  <polygon class="fil49" points="85052.94,80350.75 85055.4,80348.16 85002.72,80378.71 "/>
  <polygon class="fil49" points="83739.03,78504.2 83703.04,78524.65 83696.44,78528.79 83743.69,78501.61 83741.49,78502.51 "/>
  <polygon class="fil49" points="84971.92,80396.44 85002.72,80378.71 84975.15,80393.98 "/>
  <polygon class="fil15" points="53039.75,81840.57 58386.03,78761.65 63718.71,81840.57 58379.94,84922.34 "/>
  <polygon class="fil25" points="58386.03,78761.65 53039.75,81840.57 58379.94,84922.34 63718.71,81840.57 "/>
  <polygon class="fil15" points="53039.75,81840.57 53039.75,82611.24 58382.92,85696.12 63718.71,82611.24 63718.71,81840.57 58379.94,84922.34 "/>
  <polygon class="fil37" points="59866.27,81064.34 59473.43,81864.78 60404.6,82609.95 58951.02,82520.89 58175.82,83187.5 57670.24,82332.04 56259.89,81999 57401.01,81559.3 57304.71,80686.77 58515.46,81270.53 "/>
  <polygon class="fil16" points="53039.75,81840.57 53039.75,82611.24 58382.92,85696.12 58379.94,84922.34 "/>
  <polygon class="fil58" points="31046.04,72819.96 36392.31,69741.04 41725.13,72819.96 36386.23,75901.73 "/>
  <polygon class="fil59" points="36392.31,69741.04 31046.04,72819.96 36386.23,75901.73 41725.13,72819.96 "/>
  <polygon class="fil60" points="31046.04,72819.96 31046.04,73590.63 36389.21,76675.51 41725.13,73590.63 41725.13,72819.96 36386.23,75901.73 "/>
  <path class="fil37" d="M36170.33 71526.62l2240.82 1293.73c142.89,82.58 142.89,289.03 0,371.61l-1573.44 908.39c-66.28,38.32 -148.08,38.32 -214.35,0.13l-1198.72 -690.8 -1044.17 -601.76c-143.16,-82.45 -143.29,-289.03 -0.13,-371.61l1575.51 -909.69c66.4,-38.31 148.08,-38.31 214.48,0z"/>
  <polygon class="fil37" points="35395.65,74162.23 36062.51,73777.15 35424.64,73409.68 "/>
  <polygon class="fil61" points="31046.04,72819.96 31046.04,73590.63 36389.21,76675.51 36386.23,75901.73 "/>
  <polygon class="fil62" points="56376.64,68348.94 55708.88,68734.4 65053.73,74129.09 55709.14,68734.4 56376.9,68349.07 "/>
  <polygon class="fil63" points="56376.9,68349.07 55709.14,68734.4 65053.73,74129.09 65053.34,73358.29 "/>
  <polygon class="fil63" points="55708.88,67963.35 55708.88,68734.4 56376.64,68348.94 "/>
  <polygon class="fil64" points="57339.79,50110.98 58001.73,49721.37 58672.08,50110.98 56698.55,58995.29 56033.25,59382.82 58010.14,50500.71 "/>
  <polygon class="fil65" points="57050.75,52248.76 57050.75,53019.56 61056.45,55331.7 61052.82,54559.09 "/>
  <polygon class="fil64" points="57050.75,52248.76 57711.14,51867.44 61723.44,54175.56 61723.44,54946.23 61056.45,55331.7 61052.82,54559.09 "/>
  <polygon class="fil66" points="58219.31,52159.19 58218.79,52159.45 61712.69,54169.35 "/>
  <polygon class="fil67" points="58219.31,52159.19 58218.79,52159.45 61712.69,54169.35 "/>
  <polygon class="fil68" points="57556.59,52540.77 57556.08,52541.03 61052.82,54559.09 "/>
  <polygon class="fil69" points="58218.79,52159.45 57556.59,52540.77 61052.82,54559.09 61056.45,55331.7 61512.58,55068.03 61712.69,54169.35 "/>
  <polygon class="fil65" points="56442.92,54968.24 56442.92,55738.91 60448.61,58051.17 60444.99,57278.43 "/>
  <polygon class="fil64" points="56442.92,54968.24 57103.43,54586.92 61115.6,56894.91 61115.6,57665.58 60448.61,58051.17 60444.99,57278.43 "/>
  <polygon class="fil66" points="57612.9,54879.18 57612.64,54879.83 61107.06,56889.99 "/>
  <polygon class="fil70" points="57612.9,54879.18 57612.64,54879.83 61107.06,56889.99 "/>
  <polygon class="fil69" points="57612.38,54878.93 57611.73,54879.31 57612.64,54879.83 57612.9,54879.18 "/>
  <polygon class="fil69" points="57611.73,54879.31 56951.35,55258.82 60444.99,57278.43 60448.61,58051.17 60907.72,57785.83 61107.06,56889.99 57612.64,54879.83 "/>
  <polygon class="fil64" points="61343.41,52426.74 62005.22,52037.13 62675.58,52426.74 60702.05,61310.92 60036.87,61698.59 62013.76,52816.34 "/>
  <polygon class="fil65" points="55365.09,58994.38 56033.25,59382.82 58010.14,50500.71 57339.79,50110.98 "/>
  <polygon class="fil69" points="57368.39,50094.54 57340.69,50110.98 57368.26,50127.03 "/>
  <polygon class="fil69" points="62005.22,52037.13 61439.06,52370.43 61343.41,52426.74 62013.76,52816.34 62675.58,52426.74 "/>
  <polygon class="fil64" points="56128.38,55554.72 56790.2,55165.11 57460.55,55554.85 53972.87,71262.05 53307.69,71649.72 56798.74,55944.45 "/>
  <polygon class="fil65" points="55839.22,57692.5 55839.22,58463.3 59844.91,60775.44 59841.29,60002.7 "/>
  <polygon class="fil65" points="55131.2,63445.86 54802.82,64027.94 58808.38,66340.2 58804.89,65567.46 "/>
  <polygon class="fil65" points="54523.36,66180.87 54135.7,66730.85 58141.39,69043.11 58137.77,68270.37 "/>
  <polygon class="fil65" points="55739.94,60703.34 55591.48,61390.01 59237.08,63494.92 59233.45,62722.17 "/>
  <polygon class="fil65" points="53915.65,68907.07 53466.64,69421.59 57472.33,71733.72 57468.71,70961.11 "/>
  <polygon class="fil64" points="53915.65,68907.07 54572.55,68522.65 58139.32,70577.59 58139.32,71348.26 57472.33,71733.72 57468.71,70961.11 "/>
  <polygon class="fil64" points="55839.22,57692.5 56499.61,57311.31 60511.9,59619.31 60511.9,60389.97 59844.91,60775.44 59841.29,60002.7 "/>
  <polygon class="fil64" points="55739.94,60703.34 56400.46,60321.89 59904.2,62338.65 59904.2,63109.32 59237.08,63494.92 59233.45,62722.17 "/>
  <polygon class="fil64" points="55131.2,63445.86 55794.82,63063.76 59475.5,65183.94 59475.5,65954.61 58808.38,66340.2 58804.89,65567.46 "/>
  <polygon class="fil64" points="54523.36,66180.87 55184.92,65800.97 58808.38,67886.85 58808.38,68657.52 58141.39,69043.11 58137.77,68270.37 "/>
  <polygon class="fil69" points="57005.97,57602.54 56341.95,57982.57 59841.29,60002.7 59844.91,60775.44 60511.9,60389.97 60511.9,59619.31 "/>
  <polygon class="fil69" points="56400.46,60321.89 55739.94,60703.34 59233.45,62722.17 59237.08,63494.92 59904.2,63109.32 59904.2,62338.65 59703.18,62222.94 "/>
  <polygon class="fil69" points="55794.82,63063.76 55793.01,63064.8 55131.2,63445.86 58804.89,65567.46 58808.38,66340.2 59475.5,65954.61 59475.5,65390.78 59475.5,65183.94 "/>
  <polygon class="fil69" points="55184.92,65800.97 54523.36,66180.87 58137.77,68270.37 58141.39,69043.11 58808.38,68657.52 58808.38,67886.85 57322.96,67031.79 "/>
  <polygon class="fil69" points="54572.55,68522.65 53915.65,68907.07 57468.71,70961.11 57472.33,71733.72 58139.32,71348.26 58139.32,70577.59 "/>
  <polygon class="fil64" points="60131.88,57870.48 60793.82,57480.87 61464.17,57870.48 57976.49,73577.82 57311.18,73965.48 60802.23,58260.21 "/>
  <polygon class="fil65" points="52639.53,71261.15 53310.92,71649.72 57192.36,54167.8 56128.38,55554.72 "/>
  <polygon class="fil65" points="56561.22,55033.6 56561.22,55804.27 60566.92,58116.41 60563.29,57343.8 "/>
  <polygon class="fil65" points="56643.16,73576.91 57311.18,73965.48 61405.67,55525.98 60131.88,57870.48 "/>
  <polygon class="fil64" points="56851.42,57689.27 57005.97,57602.54 57036.52,57473.88 56499.09,57294.61 56462.98,57458.22 "/>
  <polygon class="fil65" points="59368.72,61310.14 60036.87,61698.59 62013.76,52816.34 61343.41,52426.74 "/>
  <polygon class="fil71" points="57129.97,46491.39 57237.01,46427.06 57901.8,46040.05 58034.86,46116.8 58707.03,46505.37 58034.86,46886.95 57373.7,46505.5 57373.57,46505.63 57342.63,46487.9 57167.25,46569.19 "/>
  <path class="fil71" d="M58596.49 46441.43l110.54 63.94 -110.54 -63.94zm-694.69 -401.38l0 0 -664.79 387.01 -107.04 64.33 37.28 77.8 175.38 -81.29 30.94 17.73 0.13 -0.13 659.48 380.55 1.17 -768.73 472.7 272.98 0.26 -0.39 -472.45 -273.11 -133.06 -76.75z"/>
  <polygon class="fil72" points="59369.62,47658.27 59369.62,52282.42 57366.84,51128.09 57373.57,46505.63 "/>
  <polygon class="fil72" points="60030.4,47269.96 60030.4,51894.1 58027.62,50739.91 58034.35,46117.32 "/>
  <polygon class="fil73" points="59369.62,52282.29 59369.62,56906.43 58339.04,56313.74 58339.04,51689.59 "/>
  <polygon class="fil73" points="58339.04,51689.59 58339.04,56313.74 57366.84,55747.32 57366.84,51123.18 "/>
  <polygon class="fil71" points="60030.79,47270.35 60030.79,51894.23 59370.14,51512.39 59370.14,47658.66 "/>
  <polygon class="fil71" points="59365.87,51513.56 59370.14,51515.63 60030.79,51894.23 59370.14,52282.54 "/>
  <polygon class="fil74" points="58155.76,56207.47 58522.2,56420.65 58522.2,51796.51 58155.76,51583.32 "/>
  <path class="fil72" d="M59369.62 47658.27l1214.38 987.48c69.12,56.17 165.81,63.81 242.95,19.15l1205.2 -698.57 0 445.52 -1205.97 697.93c-76.76,44.4 -172.93,37.02 -241.92,-18.64l-1214.12 -977.38 -0.52 -455.49z"/>
  <polygon class="fil71" points="58707.03,46505.37 60030.79,47270.35 59370.14,47658.66 58034.86,46886.95 "/>
  <path class="fil71" d="M61357.26 47585.27l674.89 381.06 -1205.2 698.57c-77.14,44.66 -173.83,37.02 -242.95,-19.15l-1214.38 -987.48 661.17 -387.92 548.16 574.18c68.22,71.45 176.43,87.11 262.11,37.8l516.2 -297.06z"/>
  <polygon class="fil71" points="58507.31,46389.91 58507.05,46390.3 58706.64,46505.5 58707.03,46505.37 58596.49,46441.43 "/>
  <polygon class="fil75" points="58507.05,46390.3 58034.86,46886.95 58706.64,46505.5 "/>
  <polygon class="fil76" points="58507.05,46390.3 58034.86,46886.95 58706.64,46505.5 "/>
  <polygon class="fil71" points="58707.03,46505.37 58706.64,46505.5 58034.86,46886.95 59370.14,47658.66 59370.14,47658.66 59369.62,47658.27 60030.79,47270.35 "/>
  <path class="fil71" d="M60030.79 47270.35l-661.17 387.92 1214.38 987.48c39.09,31.84 87.11,48.02 135.39,48.02 36.89,0 74.04,-9.45 107.56,-28.87l1205.2 -698.57 -674.89 -381.06 -516.2 297.06c-33.39,19.28 -70.28,28.6 -106.91,28.6 -57.08,0 -113.65,-22.78 -155.2,-66.4l-548.16 -574.18z"/>
  <polygon class="fil77" points="61710.88,47389.3 61365.41,47582.94 62035.12,47969.57 62385.77,47770.23 "/>
  <polygon class="fil77" points="62035.51,47969.7 62385.77,47770.23 62385.77,48215.89 62035.51,48414.57 "/>
  <polygon class="fil77" points="57367.62,51128.22 57025.12,50936.27 57025.12,50591.19 57366.84,50779.52 "/>
  <polygon class="fil74" points="59859.41,56048.52 60529.9,55666.16 59859.41,55270.09 "/>
  <path class="fil74" d="M60181.45 55665.39l-811.83 470.5 0 770.54 1331.26 -772.61 0 -169.05c0,-266.64 -288.77,-432.96 -519.43,-299.38z"/>
  <polygon class="fil74" points="60030.53,51894.1 60030.53,56525.11 59369.62,56906.43 59369.62,52282.29 "/>
  <path class="fil78" d="M59900.31 45256.04l-1067.21 -610.16 -817.65 452.51c-135.52,75.07 -220.04,217.33 -221.34,372.13l-9.58 1269.26 1105.27 641.37 633.98 -364.5c232.86,-133.97 376.53,-382.23 376.53,-650.94l0 -1109.67z"/>
  <path class="fil77" d="M59900.31 45515.95l-564.08 328.9c-131.9,76.89 -212.93,218.11 -212.93,370.71l0 1033.56 401.78 -232.21c232.21,-134.23 375.23,-381.97 375.23,-650.04l0 -850.92z"/>
  <path class="fil78" d="M59041.11 44522.65l1065.4 614.7 0 18.51c0,148.21 -78.44,285.15 -206.2,360.09l0 -259.91 -1067.21 -610.16 208.01 -123.23z"/>
  <path class="fil72" d="M57025.12 50594.68l348.45 195.19 0 -4284.24 -25.76 -15.01c-143.03,-83.62 -322.69,19.54 -322.69,185.22l0 3918.84z"/>
  <g id="_2437173089472">
   <polygon class="fil14" points="98312.36,67127.31 92983.95,70216.07 92986.41,76383.11 98312.36,73295.64 "/>
   <polygon class="fil15" points="98312.36,67127.31 92983.95,70216.07 92986.41,76383.11 98312.36,73295.64 "/>
   <path class="fil37" d="M97225.22 71980.17c0,-352.33 -285.67,-473.48 -637.99,-270.65 -352.33,202.83 -637.87,652.88 -637.87,1005.21 0,352.33 285.54,473.48 637.87,270.65 352.32,-202.83 637.99,-652.88 637.99,-1005.21z"/>
   <path class="fil37" d="M97225.22 69489.93c0,-352.33 -285.67,-473.48 -637.99,-270.65 -352.33,202.7 -637.87,652.88 -637.87,1005.08 0,352.45 285.54,473.61 637.87,270.78 352.32,-202.83 637.99,-652.88 637.99,-1005.21z"/>
   <path class="fil37" d="M95163.93 71921.67c0,-352.33 -285.66,-473.61 -637.99,-270.79 -352.33,202.83 -637.87,652.89 -637.87,1005.21 0,352.33 285.54,473.61 637.87,270.79 352.33,-202.83 637.99,-652.88 637.99,-1005.21z"/>
   <polygon class="fil37" points="94657.45,72065.34 94456.43,72514.23 96455.85,72570.92 96656.86,72122.17 "/>
   <polygon class="fil37" points="96455.85,69785.05 94456.43,72143.78 94657.45,72361.11 96656.86,70002.37 "/>
   <polygon class="fil16" points="92986.41,76383.11 92300.14,75981.21 92300.14,69840.7 92983.95,70216.07 "/>
   <polygon class="fil14" points="92300.14,69840.7 97662.98,66756.99 98312.36,67127.31 92983.95,70216.07 "/>
   <polygon class="fil25" points="97662.98,66756.99 92300.14,69840.7 92983.95,70216.07 98312.36,67127.31 "/>
  </g>
  <polygon class="fil15" points="44423.12,55288.08 46425.51,54132.07 48427.77,55288.08 46425.51,56444.08 "/>
  <polygon class="fil37" points="44423.12,55288.08 46425.51,54132.07 48427.77,55288.08 46425.51,56444.08 "/>
  <polygon class="fil52" points="46425.51,56444.08 48427.77,55288.08 48427.77,57600.08 46425.51,58756.22 "/>
  <polygon class="fil51" points="44423.12,57600.08 44423.12,55288.08 46425.51,56444.08 46425.51,58756.22 "/>
  <polygon class="fil79" points="73793.85,79933.7 73793.85,77621.56 75796.24,78777.57 75796.24,81089.71 "/>
  <polygon class="fil80" points="73793.85,77621.56 73793.85,79933.7 75796.24,81089.71 75796.24,78777.57 "/>
  <polygon class="fil81" points="73793.85,77621.56 75796.24,76465.56 77798.51,77621.56 75796.24,78777.57 "/>
  <polygon class="fil82" points="75796.24,76465.56 73793.85,77621.56 75796.24,78777.57 77798.51,77621.56 "/>
  <polygon class="fil47" points="75796.24,78777.57 77798.51,77621.56 77798.51,79933.7 75796.24,81089.71 "/>
  <polygon class="fil79" points="75796.24,78777.57 77798.51,77621.56 77798.51,79933.7 75796.24,81089.71 "/>
  <polygon class="fil79" points="75796.24,78777.57 77798.51,77621.56 77798.51,79933.7 75796.24,81089.71 "/>
  <polygon class="fil83" points="85129.31,85725.37 90475.59,82646.45 95808.4,85725.37 90469.63,88807.14 "/>
  <polygon class="fil84" points="85129.31,85725.37 85129.31,86496.04 90472.61,89580.92 95808.4,86496.04 95808.4,85725.37 90469.63,88807.14 "/>
  <polygon class="fil18" points="40436.97,62587.82 45783.24,59508.9 51116.06,62587.82 45777.16,65669.59 "/>
  <polygon class="fil31" points="45783.24,59508.9 40436.97,62587.82 45777.16,65669.59 51116.06,62587.82 "/>
  <polygon class="fil18" points="40436.97,62587.82 40436.97,63358.49 45780.14,66443.37 51116.06,63358.49 51116.06,62587.82 45777.16,65669.59 "/>
  <path class="fil37" d="M45587.02 62492.42l-1862.35 296.03c8.29,-6.35 17.74,-13.46 28.09,-19.94l2346.44 -1454.48c10.48,-6.47 22,-12.3 32.23,-17.48l-409.8 1112.39c-14.63,40.25 -67.95,73.39 -134.61,83.48z"/>
  <path class="fil37" d="M46454.76 61343.41l1222.41 708.15c114.42,66.4 103.68,185.35 -23.95,264.44l-2261.91 1401.81c-127.63,79.08 -325.67,89.57 -440.09,23.29l-1222.41 -708.28c-24.98,-14.49 -45.3,-31.84 -56.69,-50.86l1878.52 -286.06c98.76,-15.02 189.24,-47.5 260.04,-91.25 70.68,-43.88 121.67,-99.15 143.55,-158.82l413.68 -1134.65c32.36,6.08 61.87,17.73 86.85,32.23z"/>
  <polygon class="fil29" points="51116.06,62587.82 45777.16,65669.59 45780.14,66443.37 51116.06,63358.49 "/>
  <polygon class="fil85" points="85125.69,86128.7 85125.69,86496.04 90468.86,89580.92 90468.86,89578.85 85129.31,86496.04 85129.31,86130.9 "/>
  <polygon class="fil86" points="85129.31,86130.9 85129.31,86496.04 90468.86,89578.85 90465.88,88814.65 90124.04,89012.3 90120.28,89010.23 90120.28,89012.3 "/>
  <polygon class="fil58" points="84780.74,85156.75 90127.01,82077.83 95459.83,85156.75 90121.06,88238.52 "/>
  <polygon class="fil87" points="85458.73,84766.37 84780.74,85156.75 90121.06,88238.52 95459.83,85156.75 95453.61,85153.13 90794.39,87846.85 "/>
  <polygon class="fil60" points="84780.74,85156.75 84780.74,85927.42 90124.04,89012.3 95459.83,85927.42 95459.83,85156.75 90121.06,88238.52 "/>
  <polygon class="fil88" points="85451.09,83991.3 90797.37,80912.38 96130.18,83991.3 90791.41,87073.07 "/>
  <polygon class="fil89" points="90797.37,80912.38 85451.09,83991.3 90791.41,87073.07 96130.18,83991.3 "/>
  <polygon class="fil47" points="85451.09,83991.3 85451.09,84761.97 90794.39,87846.85 96130.18,84761.97 96130.18,83991.3 90791.41,87073.07 "/>
  <path class="fil37" d="M92795.49 84342.46c-15.4,-171.76 -146.39,-333.17 -344.3,-455.74 -197.78,-122.71 -462.48,-206.59 -749.96,-222.64l-305.99 -16.18 -16.57 -183.93c-15.53,-171.63 -146.39,-333.04 -344.3,-455.75 -197.78,-122.57 -462.48,-206.58 -749.96,-222.63 -573.02,-29.51 -1012.72,225.22 -981.65,568.49l16.69 185.61 14.11 156.11 20.45 227.16 77.93 863.6 1436.36 75.21 379.64 19.15 259.78 13.85 305.99 16.18c573.28,31.2 1012.98,-223.41 981.78,-568.49z"/>
  <polygon class="fil90" points="85451.09,83991.3 85451.09,84761.97 90794.39,87846.85 90791.41,87073.07 "/>
  <polygon class="fil85" points="84777.11,85156.75 84777.11,85927.42 85125.69,86128.7 85125.69,86126.5 84780.74,85927.42 84780.74,85158.82 "/>
  <polygon class="fil91" points="85125.69,86126.5 85125.69,86128.7 85129.31,86130.9 85129.31,86128.7 "/>
  <polygon class="fil92" points="85129.31,86128.7 85129.31,86130.9 90120.28,89012.3 90120.28,89010.23 "/>
  <polygon class="fil70" points="85129.31,86128.7 85129.31,86130.9 90120.28,89012.3 90120.28,89010.23 "/>
  <polygon class="fil93" points="84780.74,85158.82 84780.74,85927.42 85125.69,86126.5 85129.31,86128.7 90120.28,89010.23 90117.31,88238.52 "/>
  <polygon class="fil65" points="60036.87,61698.59 59368.72,61310.14 61343.41,52426.74 62013.76,52816.34 "/>
  <path class="fil94" d="M75420.48 24758.75l-3050.31 -1325.43 0 -734.17 3050.31 -1320.13 0 863.6 -2127.81 813.77 2127.81 844.97 0 857.39zm279.72 583.89l1105.91 -4597.35 639.94 0 -1112.13 4597.35 -633.72 0zm2024.27 -577.67l0 -857.4 2127.95 -839.78 -2127.95 -831.51 0 -851.18 3050.44 1321.3 0 729.12 -3050.44 1329.45z"/>
 </g>
</svg>
